<svg style="background-color:white" xmlns="http://www.w3.org/2000/svg" width="512" height="512" viewBox="0 0 400 400"><path d="M134.971 124.436 C 91.294 168.034,68.750 191.985,68.750 194.789 C 68.750 199.717,105.653 237.500,110.465 237.500 C 114.714 237.500,283.333 68.533,283.333 64.276 C 283.333 58.897,279.123 58.333,238.967 58.333 L 201.192 58.333 134.971 124.436 M262.500 71.365 C 262.500 71.657,228.501 105.886,186.946 147.429 L 111.392 222.962 97.058 208.517 L 82.723 194.072 144.403 132.453 L 206.082 70.833 234.291 70.833 C 249.806 70.833,262.500 71.073,262.500 71.365 M169.048 215.310 C 134.127 250.280,129.010 256.219,130.873 259.617 C 132.055 261.776,149.814 280.204,170.336 300.568 L 207.649 337.594 246.829 337.026 C 300.585 336.247,300.167 338.765,254.174 292.715 L 217.753 256.250 254.174 219.785 C 300.093 173.809,300.450 176.252,247.692 175.485 L 209.375 174.928 169.048 215.310 M220.314 236.967 L 172.930 284.350 158.883 270.303 L 144.835 256.255 178.122 222.919 L 211.409 189.583 239.553 189.583 L 267.697 189.583 220.314 236.967 M266.667 323.410 C 266.667 324.284,254.734 325.000,240.150 325.000 L 213.634 325.000 197.444 308.905 L 181.253 292.809 195.273 278.682 L 209.292 264.554 237.979 293.187 C 253.757 308.935,266.667 322.535,266.667 323.410 "></path></svg>
